# Blender 3.1.0
# www.blender.org
o Cube
v 0.664644 0.419876 -0.668922
v 0.610267 -0.610267 -0.610267
v 0.610267 0.610267 0.610267
v 0.610267 -0.610267 0.610267
v -0.765327 0.334892 -0.304175
v -0.610267 -0.610267 -0.610267
v -0.610267 0.610267 0.610267
v -0.610267 -0.610267 0.178314
v 0.867842 0.484691 0.102166
v 0.623861 0.562669 0.290470
v 0.792393 0.540148 -0.223224
vn -0.0367 0.5975 -0.1188
vn -0.1048 -0.1048 0.5920
vn -0.6032 -0.0655 0.0655
vn -0.0000 -0.6103 -0.0000
vn 0.6066 -0.0644 0.0175
vn -0.0849 0.0709 -0.6002
vt 0.625000 0.500000
vt 0.375000 0.500000
vt 0.625000 0.750000
vt 0.375000 0.750000
vt 0.875000 0.500000
vt 0.625000 0.250000
vt 0.125000 0.500000
vt 0.375000 0.250000
vt 0.875000 0.750000
vt 0.625000 1.000000
vt 0.625000 0.000000
vt 0.375000 1.000000
vt 0.375000 0.000000
vt 0.125000 0.750000
vt 0.591898 0.642519
vt 0.625000 0.687500
vt 0.625000 0.562500
s 0
usemtl None
f 1/1/1 5/5/1 7/9/1 3/3/1 10/16/1 9/15/1 11/17/1
f 4/4/2 3/3/2 7/10/2 8/12/2
f 8/13/3 7/11/3 5/6/3 6/8/3
f 6/7/4 2/2/4 4/4/4 8/14/4
f 2/2/5 1/1/5 11/17/5 9/15/5 10/16/5 3/3/5 4/4/5
f 6/8/6 5/6/6 1/1/6 2/2/6
